<svg id="Layer_1" data-name="Layer 1" xmlns="http://www.w3.org/2000/svg" viewBox="0 0 523.91 421.6"><defs><style>.cls-1{fill:#010101;}</style></defs><title>6</title><g id="Page-1"><g id="_001---Landline-Phone" data-name="001---Landline-Phone"><g id="Shape"><path class="cls-1" d="M543.73,251.12c-37.89-30.24-120.77-81-250.15-81-129.19,0-212.19,50.71-250.21,81a31.74,31.74,0,0,0-10,34.92l28.25,76.34a31.3,31.3,0,0,0,37.09,20.71l25.09-5.8L90,430.73a14.54,14.54,0,1,0,24.57,15.54L164,368l17.2-4a31.31,31.31,0,0,0,24.51-30.8V295.08a2.56,2.56,0,0,1,1-2,145.42,145.42,0,0,1,86.66-25.57h.37A145.33,145.33,0,0,1,380.42,293a2.56,2.56,0,0,1,1,2v38.12A31.32,31.32,0,0,0,405.94,364l17.22,4L509,504a2.66,2.66,0,0,1,.42,1.4v54.78a2.53,2.53,0,0,1-2.53,2.53H80.24a2.53,2.53,0,0,1-2.53-2.53V505.39a2.77,2.77,0,0,1,.44-1.47,14.55,14.55,0,0,0-24.69-15.39,31.77,31.77,0,0,0-4.82,16.83v54.78a31.63,31.63,0,0,0,31.6,31.6H506.91a31.63,31.63,0,0,0,31.6-31.6v-54.8a31.81,31.81,0,0,0-4.89-16.84L463.45,377.28l25,5.8a31.7,31.7,0,0,0,7.18.82h.1a31.31,31.31,0,0,0,29.68-21.24l28.4-76.73.07-.18A31.76,31.76,0,0,0,543.73,251.12ZM397.59,269.59l-.13-.09a174.61,174.61,0,0,0-103.88-31.09,174.64,174.64,0,0,0-103.9,31.1l-.13.09a32,32,0,0,0-12.91,25.49v38.14a2.53,2.53,0,0,1-2,2.47L92.12,354.75a2.59,2.59,0,0,1-3-1.77L60.76,276.44a2.49,2.49,0,0,1,.78-2.62c28.15-22.45,107-74.61,232-74.61s203.93,52.19,232.05,74.63a2.36,2.36,0,0,1,.82,2.46l-28.36,76.61-.07.19a2.51,2.51,0,0,1-3,1.67L435.51,341l-.75-.15-22.29-5.15a2.51,2.51,0,0,1-2-2.49V295.07A32,32,0,0,0,397.59,269.59Z" transform="translate(-31.61 -170.14)"/></g><g id="Shape-2" data-name="Shape"><path class="cls-1" d="M98.75,467.37A14.55,14.55,0,0,1,84.23,481.9h-.06a14.54,14.54,0,0,1-.07-29.07h.12A14.55,14.55,0,0,1,98.75,467.37Z" transform="translate(-31.61 -170.14)"/></g><g id="Shape-3" data-name="Shape"><path class="cls-1" d="M293.58,323.74a99.87,99.87,0,1,0,99.86,99.88h0A100,100,0,0,0,293.58,323.74Zm0,170.67a70.8,70.8,0,1,1,70.8-70.8A71,71,0,0,1,293.58,494.41Z" transform="translate(-31.61 -170.14)"/></g><g id="Shape-4" data-name="Shape"><circle class="cls-1" cx="261.97" cy="253.47" r="31.6"/></g></g></g></svg>