<svg width="45" height="36" viewBox="0 0 45 36" fill="none" xmlns="http://www.w3.org/2000/svg">
<path d="M14.5957 14.0397V10.8735M14.5957 14.0397C14.5992 15.0305 13.9052 15.891 12.9254 16.1109M14.5957 14.0397L14.7457 14.0392M14.5957 14.0397H14.7457V14.0394C14.7457 14.0394 14.7457 14.0393 14.7457 14.0392M14.5957 10.8735L11.2731 16.4863L12.9254 16.1109M14.5957 10.8735C14.5952 10.6454 14.7062 10.431 14.8938 10.2976M14.5957 10.8735L22.498 8.08333M12.9254 16.1109L12.9582 16.2572M12.9254 16.1109L12.9586 16.2571L12.9582 16.2572M11.3662 16.6189L7.12636 23.2376L7.12629 23.2377C6.95988 23.497 6.6666 23.6481 6.3575 23.6357C6.04838 23.6234 5.76831 23.4493 5.62366 23.1773C5.4789 22.9052 5.49242 22.5774 5.65895 22.3178C5.65896 22.3178 5.65898 22.3178 5.659 22.3177L8.95976 17.1653L6.0089 17.8387C6.00877 17.8387 6.00865 17.8387 6.00853 17.8388C4.85135 18.1079 3.67541 17.4604 3.30186 16.3437L0.924942 10.0124L0.923687 10.0091L0.923728 10.0091C0.607183 9.10081 0.901441 8.095 1.65803 7.4928L1.65884 7.49216L1.65884 7.49216C4.82434 5.00821 11.726 0.85 22.498 0.85C33.27 0.85 40.1753 5.00818 43.3352 7.49513L43.3357 7.49547C44.0867 8.09105 44.3837 9.08543 44.0785 9.9886L44.077 9.99334L44.0769 9.99331L41.6839 16.3663C41.3687 17.2853 40.4938 17.901 39.5128 17.8978M11.3662 16.6189L39.5133 17.7478M11.3662 16.6189L12.9582 16.2572M11.3662 16.6189L12.9582 16.2572M39.5128 17.8978L39.5133 17.7478M39.5128 17.8978C39.513 17.8978 39.5131 17.8978 39.5133 17.8978L39.5133 17.7478M39.5128 17.8978C39.3361 17.8978 39.16 17.878 38.9879 17.8388L38.9878 17.8388L36.0404 17.1654M39.5133 17.7478C39.3476 17.7479 39.1826 17.7293 39.0212 17.6926L35.9251 16.9852L36.0404 17.1654M36.0404 17.1654L42.4062 27.1133L42.4063 27.1135C42.638 27.477 42.7617 27.8974 42.7632 28.327L42.7632 28.3275V32.875C42.7632 34.1334 41.7291 35.15 40.458 35.15H4.5381C3.26698 35.15 2.23291 34.1334 2.23291 32.875V28.3276M36.0404 17.1654L35.8319 17.1177L42.2798 27.1942C42.4963 27.5338 42.6118 27.9264 42.6132 28.3275L2.23291 28.3276M2.23291 28.3276L2.38291 28.3275H2.23291V28.3276ZM2.23291 28.3276C2.23267 27.8983 2.3548 27.4778 2.58516 27.114C2.74999 26.8533 3.04254 26.7002 3.35202 26.7105C3.66151 26.7209 3.94299 26.8933 4.08959 27.1645C4.23633 27.436 4.22498 27.7643 4.05999 28.0252L4.05951 28.0259C4.00145 28.1165 3.97041 28.2212 3.96971 28.328V32.875C3.96971 33.1814 4.22218 33.4333 4.5381 33.4333H40.458C40.7739 33.4333 41.0264 33.1814 41.0264 32.875L41.0264 28.3284C41.0264 28.3282 41.0264 28.328 41.0264 28.3278C41.0256 28.221 40.9946 28.1165 40.9366 28.0259L40.9365 28.0259L33.6298 16.6189L32.0378 16.2572C30.9907 16.0223 30.2466 15.1017 30.2504 14.0392M2.23291 28.3276L30.4004 14.0397M30.2504 14.0392L30.4004 14.0397M30.2504 14.0392V14.0397H30.4004M30.2504 14.0392V10.8735V10.8733C30.2506 10.6947 30.1638 10.5262 30.0158 10.4207M30.4004 14.0397V10.8735C30.4007 10.6452 30.2894 10.4309 30.1015 10.2976M30.0158 10.4207C30.0162 10.4209 30.0166 10.4212 30.017 10.4215L30.1015 10.2976M30.0158 10.4207C27.8137 8.91754 25.1802 8.1507 22.5027 8.23326L22.4934 8.23355L22.4934 8.23326C19.8157 8.15085 17.1821 8.91764 14.9796 10.4206M30.0158 10.4207C30.0155 10.4204 30.0151 10.4202 30.0148 10.4199L30.1015 10.2976M30.1015 10.2976C27.8728 8.77593 25.2076 7.99978 22.498 8.08333M14.8938 10.2976C17.1229 8.77606 19.7883 7.99993 22.498 8.08333M14.8938 10.2976L14.9784 10.4215C14.9788 10.4212 14.9792 10.4209 14.9796 10.4206M14.8938 10.2976L14.9807 10.4198C14.9804 10.4201 14.98 10.4203 14.9796 10.4206M22.498 8.08333L14.9796 10.4206M14.9796 10.4206C14.8319 10.5262 14.7453 10.6947 14.7457 10.8732L14.7457 10.8735L14.7457 14.0392M14.9796 10.4206L14.7457 14.0392M41.0629 27.945L33.723 16.4863L32.0707 16.1109L41.0629 27.945ZM41.0629 27.945C41.1362 28.0595 41.1756 28.192 41.1764 28.3275L41.0629 27.945ZM40.0488 15.7932L40.0489 15.7932L42.441 9.42225C42.5065 9.20973 42.4343 8.97847 42.2567 8.83869C39.8627 6.95497 33.1322 2.56667 22.498 2.56667C11.8646 2.56667 5.13436 6.95431 2.73988 8.83828C2.55913 8.98342 2.48897 9.22244 2.56158 9.439L4.93931 15.7713L4.9425 15.7798L4.94224 15.7798C5.02878 16.0608 5.3221 16.231 5.61659 16.1657C5.61669 16.1657 5.61679 16.1656 5.61689 16.1656L12.5688 14.5834C12.5688 14.5834 12.5688 14.5834 12.5688 14.5834C12.8277 14.5244 13.0088 14.298 13.0089 14.0397C13.0089 14.0397 13.0089 14.0397 13.0089 14.0397V10.8735V10.8729C13.0116 10.1478 13.3617 9.46736 13.952 9.03734L13.9553 9.03492L13.9554 9.03496C16.4566 7.31589 19.4508 6.43333 22.498 6.51661C25.5449 6.43338 28.5388 7.31567 31.04 9.03425L31.0433 9.03657L31.0433 9.03661C31.634 9.4667 31.9844 10.1474 31.9872 10.8729L31.9872 10.8735L31.9872 14.0397V14.0401C31.9865 14.2991 32.1677 14.5264 32.4272 14.5855L34.3433 15.0216H34.3505L34.3669 15.0254L39.3798 16.1665L40.0488 15.7932ZM40.0488 15.7932L40.0471 15.798M40.0488 15.7932L40.0471 15.798M40.0471 15.798C39.9553 16.0702 39.6672 16.2316 39.3799 16.1665L40.0471 15.798ZM31.8372 10.8735V14.0397V10.8735ZM31.8372 10.8735C31.8346 10.1963 31.5075 9.56015 30.955 9.15788L31.8372 10.8735Z" fill="black" stroke="black" stroke-width="0.3"/>
<path d="M4.87326 26.0324C5.35069 26.0322 5.7413 25.65 5.7413 25.1741C5.7413 24.698 5.35049 24.3158 4.87289 24.3158H4.86571V24.3158L4.86497 24.3158C4.38736 24.3181 3.99848 24.7023 4.00089 25.1784C4.0033 25.6543 4.39584 26.0345 4.87326 26.0324ZM4.87326 26.0324C4.87314 26.0324 4.87301 26.0324 4.87289 26.0324V25.8824L4.87363 26.0324C4.87351 26.0324 4.87338 26.0324 4.87326 26.0324Z" fill="black" stroke="black" stroke-width="0.3"/>
<path d="M30.5504 21.5419V21.5417C30.5504 17.1537 26.9433 13.6001 22.4981 13.6001C18.0529 13.6001 14.4457 17.1537 14.4457 21.5417C14.4457 25.9297 18.0529 29.4833 22.4981 29.4833L22.4983 29.4833C26.9412 29.4782 30.5452 25.9277 30.5504 21.5419ZM16.1825 21.5416C16.1825 18.1057 19.0081 15.3167 22.4981 15.3167C25.9881 15.3167 28.8137 18.1057 28.8137 21.5417C28.8137 24.9776 25.9882 27.7666 22.4983 27.7667C19.01 27.7625 16.1868 24.9759 16.1825 21.5416Z" fill="black" stroke="black" stroke-width="0.3"/>
<path d="M24.8033 21.5417C24.8033 20.2832 23.7692 19.2667 22.4981 19.2667C21.227 19.2667 20.1929 20.2832 20.1929 21.5417C20.1929 22.8001 21.227 23.8166 22.4981 23.8166C23.7692 23.8166 24.8033 22.8001 24.8033 21.5417ZM21.9297 21.5417C21.9297 21.2353 22.1822 20.9833 22.4981 20.9833C22.814 20.9833 23.0665 21.2353 23.0665 21.5417C23.0665 21.848 22.814 22.1 22.4981 22.1C22.1822 22.1 21.9297 21.848 21.9297 21.5417Z" fill="black" stroke="black" stroke-width="0.3"/>
</svg>
