<svg width="30" height="36" viewBox="0 0 30 36" fill="none" xmlns="http://www.w3.org/2000/svg">
<path d="M14.7656 3.65704C14.3926 3.65704 14.0928 3.9532 14.0928 4.32042C14.0928 4.6622 14.3536 4.9466 14.6982 4.98034C15.0973 5.01938 15.4384 4.71293 15.4384 4.32042C15.4384 3.95267 15.138 3.65704 14.7656 3.65704Z" fill="black" stroke="black" stroke-width="0.5"/>
<path d="M28.2355 4.98438C26.3786 4.98438 24.868 3.49488 24.868 1.66406C24.868 1.29737 24.5664 1 24.1945 1H5.33655C4.96465 1 4.66306 1.29737 4.66306 1.66406C4.66306 3.49488 3.1524 4.98438 1.29557 4.98438C0.923663 4.98438 0.62207 5.28174 0.62207 5.64844V16.4853C0.62207 24.9306 6.20503 32.4981 14.5721 34.972C14.6352 34.9906 14.7003 35 14.7655 35C14.8307 35 14.896 34.9906 14.959 34.972C23.1448 32.5509 28.909 25.1154 28.909 16.4853V5.64844C28.909 5.28174 28.6074 4.98438 28.2355 4.98438ZM27.562 16.4853C27.562 24.4174 22.4285 31.2867 14.7655 33.6415C7.16362 31.3055 1.96907 24.3739 1.96907 16.4853V6.26522C4.03071 5.97316 5.66589 4.36089 5.9621 2.32812H23.5689C23.8652 4.36089 25.5003 5.97316 27.562 6.26522V16.4853Z" fill="black" stroke="black" stroke-width="0.5"/>
<path d="M25.8117 7.14192C24.4072 6.53543 23.2949 5.43873 22.6798 4.05389C22.5724 3.8123 22.3304 3.65625 22.0628 3.65625H17.4581C17.0862 3.65625 16.7846 3.95362 16.7846 4.32031C16.7846 4.68701 17.0862 4.98438 17.4581 4.98438H21.637C22.3485 6.35772 23.4751 7.46844 24.868 8.17008V16.4853C24.868 22.984 20.9112 28.5913 14.7655 30.8359C8.61977 28.5913 4.66304 22.984 4.66304 16.4853V8.17008C6.0559 7.46844 7.18239 6.35772 7.89401 4.98438H12.0729C12.4448 4.98438 12.7464 4.68701 12.7464 4.32031C12.7464 3.95362 12.4448 3.65625 12.0729 3.65625H7.46815C7.20064 3.65625 6.95859 3.81237 6.85123 4.05389C6.23612 5.43873 5.12384 6.53543 3.71933 7.14192C3.47438 7.24777 3.31604 7.4865 3.31604 7.7502V16.4853C3.31604 23.6049 7.78207 29.8099 14.5408 32.1682C14.6135 32.1936 14.6895 32.2062 14.7655 32.2062C14.8415 32.2062 14.9175 32.1936 14.9902 32.1682C21.7433 29.8119 26.215 23.6107 26.215 16.4853V7.7502C26.215 7.48643 26.0566 7.24777 25.8117 7.14192Z" fill="black" stroke="black" stroke-width="0.5"/>
<path d="M14.7656 10.6953C11.4233 10.6953 8.7041 13.3764 8.7041 16.6719C8.7041 19.9674 11.4233 22.6484 14.7656 22.6484C18.1079 22.6484 20.8271 19.9674 20.8271 16.6719C20.8271 13.3764 18.1079 10.6953 14.7656 10.6953ZM14.7656 21.3203C12.166 21.3203 10.0511 19.235 10.0511 16.6719C10.0511 14.1087 12.166 12.0234 14.7656 12.0234C17.3651 12.0234 19.4801 14.1087 19.4801 16.6719C19.4801 19.235 17.3651 21.3203 14.7656 21.3203Z" fill="black" stroke="black" stroke-width="0.5"/>
<path d="M17.9358 14.8742C17.6728 14.6149 17.2464 14.6149 16.9833 14.8742L14.0921 17.7249L13.2213 16.8664C12.9582 16.6072 12.5319 16.6072 12.2688 16.8664C12.0058 17.1257 12.0058 17.5462 12.2688 17.8056L13.6158 19.1337C13.7474 19.2633 13.9197 19.3282 14.0921 19.3282C14.2645 19.3282 14.4368 19.2633 14.5683 19.1337L17.9358 15.8134C18.1988 15.5541 18.1988 15.1336 17.9358 14.8742Z" fill="black" stroke="black" stroke-width="0.5"/>
</svg>
