<svg id="Layer_1" data-name="Layer 1" xmlns="http://www.w3.org/2000/svg" viewBox="0 0 512 511.1"><defs><style>.cls-1{fill:#010101;}</style></defs><title>4</title><path class="cls-1" d="M503.55,213.71h-19.9a66.25,66.25,0,0,0-102-82l-42,38.07a50,50,0,0,0-84.07.06l-42.07-38.13a66.24,66.24,0,0,0-102,82H91.72A50.14,50.14,0,0,0,41.64,263.8v66.78a16.7,16.7,0,0,0,16.69,16.7H75V575.45a50.15,50.15,0,0,0,50.09,50.09h345a50.15,50.15,0,0,0,50.09-50.09V347.28h16.69a16.7,16.7,0,0,0,16.7-16.7V263.8A50.15,50.15,0,0,0,503.55,213.71Zm-256,378.43H125.12a16.71,16.71,0,0,1-16.7-16.69V347.28H247.55V592.14Zm0-278.26H75V263.8a16.71,16.71,0,0,1,16.69-16.7H247.55ZM169,213.71h0a32.92,32.92,0,0,1-32.88-32.88,32.07,32.07,0,0,1,19.56-30.05,33.51,33.51,0,0,1,13.6-3,32.23,32.23,0,0,1,21.79,8.66l63.16,57.23Zm128.63-33.39a16.71,16.71,0,0,1,16.23,12.85l-16.29,14.75-16.19-14.67A16.7,16.7,0,0,1,297.64,180.32Zm16.69,411.82H280.94V347.28h33.39Zm0-278.26H280.94V247.1h33.39Zm89.75-157.4A32.87,32.87,0,0,1,459,180.84a32.92,32.92,0,0,1-32.88,32.87H340.92Zm82.77,419a16.71,16.71,0,0,1-16.69,16.7H347.72V347.28H486.85Zm33.4-261.57H347.72V247.1H503.55a16.72,16.72,0,0,1,16.7,16.7Z" transform="translate(-41.64 -114.43)"/></svg>