<svg width="51" height="34" viewBox="0 0 51 34" fill="none" xmlns="http://www.w3.org/2000/svg">
<path d="M38.3688 21.6363C34.9116 21.6363 32.0991 24.4094 32.0991 27.8181C32.0991 31.2269 34.9116 34 38.3688 34C41.8265 34 44.6385 31.2269 44.6385 27.8181C44.6385 24.4094 41.826 21.6363 38.3688 21.6363ZM38.3688 30.9091C36.64 30.9091 35.234 29.5228 35.234 27.8181C35.234 26.1135 36.64 24.7272 38.3688 24.7272C40.0976 24.7272 41.5036 26.1135 41.5036 27.8181C41.5036 29.5228 40.0976 30.9091 38.3688 30.9091Z" fill="#E92529"/>
<path d="M16.9474 21.6363C13.4902 21.6363 10.6777 24.4094 10.6777 27.8181C10.6777 31.2269 13.4902 34 16.9474 34C20.4046 34 23.2171 31.2269 23.2171 27.8181C23.2171 24.4094 20.4046 21.6363 16.9474 21.6363ZM16.9474 30.9091C15.2186 30.9091 13.8126 29.5228 13.8126 27.8181C13.8126 26.1135 15.2186 24.7272 16.9474 24.7272C18.6758 24.7272 20.0822 26.1135 20.0822 27.8181C20.0822 29.5228 18.6762 30.9091 16.9474 30.9091Z" fill="#E92529"/>
<path d="M42.5909 3.94194C42.3244 3.4201 41.7826 3.09088 41.1901 3.09088H32.9351V6.1818H40.2235L44.4916 14.552L47.2931 13.1631L42.5909 3.94194Z" fill="#E92529"/>
<path d="M33.6666 26.3246H21.8065V29.4155H33.6666V26.3246Z" fill="#E92529"/>
<path d="M12.2452 26.3246H6.81163C5.94586 26.3246 5.24426 27.0164 5.24426 27.87C5.24426 28.7236 5.94595 29.4153 6.81163 29.4153H12.2453C13.1111 29.4153 13.8127 28.7235 13.8127 27.87C13.8127 27.0163 13.111 26.3246 12.2452 26.3246Z" fill="#E92529"/>
<path d="M50.2133 16.8764L47.1303 12.9612C46.8341 12.5841 46.3769 12.3636 45.8925 12.3636H34.5026V1.54541C34.5026 0.691767 33.8009 0 32.9352 0H6.81163C5.94586 0 5.24426 0.691863 5.24426 1.54541C5.24426 2.39896 5.94596 3.09083 6.81163 3.09083H31.3678V13.909C31.3678 14.7627 32.0695 15.4544 32.9351 15.4544H45.1249L47.4076 18.3537V26.3241H43.0711C42.2053 26.3241 41.5037 27.016 41.5037 27.8695C41.5037 28.7232 42.2054 29.415 43.0711 29.415H48.975C49.8407 29.415 50.5423 28.7231 50.5424 27.8695V17.8243C50.5424 17.4812 50.4264 17.1473 50.2133 16.8764Z" fill="#E92529"/>
<path d="M12.1408 18.4938H4.93065C4.06488 18.4938 3.36328 19.1857 3.36328 20.0392C3.36328 20.8929 4.06497 21.5846 4.93065 21.5846H12.1407C13.0065 21.5846 13.7081 20.8928 13.7081 20.0392C13.7082 19.1857 13.0065 18.4938 12.1408 18.4938Z" fill="#E92529"/>
<path d="M15.7458 12.415H2.37047C1.50479 12.415 0.803101 13.1068 0.803101 13.9605C0.803101 14.8141 1.50479 15.5059 2.37047 15.5059H15.7458C16.6115 15.5059 17.3131 14.814 17.3131 13.9605C17.3131 13.1069 16.6115 12.415 15.7458 12.415Z" fill="#E92529"/>
<path d="M18.3059 6.33643H4.93065C4.06488 6.33643 3.36328 7.02828 3.36328 7.88183C3.36328 8.73547 4.06497 9.42723 4.93065 9.42723H18.3059C19.1717 9.42723 19.8733 8.73537 19.8733 7.88183C19.8734 7.02828 19.1717 6.33643 18.3059 6.33643Z" fill="#E92529"/>
</svg>
