<svg id="Layer_1" data-name="Layer 1" xmlns="http://www.w3.org/2000/svg" viewBox="0 0 428 520"><defs><style>.cls-1{fill:#010101;}</style></defs><title>5</title><path class="cls-1" d="M497.64,220.94a46.06,46.06,0,0,1-46-46,14,14,0,0,0-14-14h-280a14,14,0,0,0-14,14,46.06,46.06,0,0,1-46,46,14,14,0,0,0-14,14V398.13a294.47,294.47,0,0,0,210,282.22,14,14,0,0,0,8,0,294.51,294.51,0,0,0,210-282.22V234.94A14,14,0,0,0,497.64,220.94Zm-14,177.19c0,57.73-17.83,112.47-51.55,158.3-33.47,45.48-79.93,78.6-134.45,95.86a266.38,266.38,0,0,1-186-254.16V247.61a74.41,74.41,0,0,0,58.67-58.67H425a74.41,74.41,0,0,0,58.67,58.67Z" transform="translate(-83.64 -160.94)"/><path class="cls-1" d="M311.63,214.94a14,14,0,0,1-14,14c-.46,0-.92,0-1.38-.07a14,14,0,1,1,15.38-13.92Z" transform="translate(-83.64 -160.94)"/><path class="cls-1" d="M471.64,266.59V398.13A252.94,252.94,0,0,1,302.31,638.07a14,14,0,0,1-9.34,0A252.93,252.93,0,0,1,123.64,398.13V266.59A14,14,0,0,1,132,253.77a86.13,86.13,0,0,0,44.45-44.45,14,14,0,0,1,12.82-8.38h68.37a14,14,0,0,1,0,28H198a113.3,113.3,0,0,1-46.39,46.39v122.8c0,47.17,13.85,92.06,40.07,129.79,25.91,37.31,62.52,65.65,105.93,82,43.41-16.39,80-44.73,105.93-82,26.22-37.73,40.07-82.62,40.07-129.79V275.33a113.3,113.3,0,0,1-46.39-46.39H337.62a14,14,0,0,1,0-28H406a14,14,0,0,1,12.82,8.38,86.13,86.13,0,0,0,44.45,44.45,14,14,0,0,1,8.38,12.82Z" transform="translate(-83.64 -160.94)"/><path class="cls-1" d="M297.64,306.94a94,94,0,1,0,94,94A94.11,94.11,0,0,0,297.64,306.94Zm0,160a66,66,0,1,1,66-66A66.08,66.08,0,0,1,297.64,466.94Z" transform="translate(-83.64 -160.94)"/><path class="cls-1" d="M351.64,380.94a14,14,0,0,1-4.1,9.9l-50,50a14,14,0,0,1-19.8,0l-20-20a14,14,0,1,1,19.8-19.8l10.1,10.1,40.1-40.1a14,14,0,0,1,23.9,9.9Z" transform="translate(-83.64 -160.94)"/></svg>