<svg id="Layer_1" data-name="Layer 1" xmlns="http://www.w3.org/2000/svg" viewBox="0 0 512 354.95"><defs><style>.cls-1{fill:#010101;}</style></defs><title>3</title><path class="cls-1" d="M550.25,387.44l-30.09-38.75h0l-48.4-96.27a16.15,16.15,0,0,0-14.42-8.89H388.53V227.39a16.13,16.13,0,0,0-16.14-16.13H103.49a16.13,16.13,0,1,0,0,32.26H356.26V356.46a16.13,16.13,0,0,0,16.13,16.14H497.87l23.5,30.27v83.21H491a64.54,64.54,0,0,0-125.25,0H270.45a64.54,64.54,0,0,0-125.26,0h-41.7a16.14,16.14,0,1,0,0,32.27h42a64.54,64.54,0,0,0,124.7,0H366a64.54,64.54,0,0,0,124.69,0H537.5a16.14,16.14,0,0,0,16.14-16.14V397.34A16.2,16.2,0,0,0,550.25,387.44ZM388.53,340.33V275.79h58.89l32.44,64.54ZM207.82,533.94a32.27,32.27,0,1,1,32.27-32.26A32.3,32.3,0,0,1,207.82,533.94Zm220.51,0a32.27,32.27,0,1,1,32.27-32.26A32.3,32.3,0,0,1,428.33,533.94Z" transform="translate(-41.64 -211.26)"/><path class="cls-1" d="M158.34,404.33H84.12a16.14,16.14,0,0,0,0,32.27h74.22a16.14,16.14,0,1,0,0-32.27Z" transform="translate(-41.64 -211.26)"/><path class="cls-1" d="M195.45,340.87H57.77a16.14,16.14,0,0,0,0,32.27H195.45a16.14,16.14,0,1,0,0-32.27Z" transform="translate(-41.64 -211.26)"/><path class="cls-1" d="M221.81,277.41H84.12a16.13,16.13,0,0,0,0,32.26H221.81a16.13,16.13,0,0,0,0-32.26Z" transform="translate(-41.64 -211.26)"/></svg>