<svg width="28" height="28" viewBox="0 0 28 28" fill="none" xmlns="http://www.w3.org/2000/svg">
<path d="M0 0V28H28V0H0ZM16.3227 15.1779C15.8439 18.3233 13.4989 20.1265 10.4628 20.1265C7.05103 20.1265 4.28494 17.3604 4.28494 13.9486C4.28494 10.5376 7.05103 7.77153 10.4628 7.77153C12.1132 7.77153 13.5594 8.36049 14.6119 9.38285L12.839 11.1558C12.2385 10.5509 11.4168 10.2285 10.4628 10.2285C8.4545 10.2285 6.82628 11.941 6.82628 13.9485C6.82628 15.9578 8.4545 17.6207 10.4628 17.6207C12.1461 17.6207 13.4208 16.807 13.7885 15.1779H10.4628V12.697H16.3077C16.3778 13.0967 16.4134 13.5151 16.4134 13.9485C16.4133 14.3785 16.3822 14.788 16.3227 15.1779ZM23.7415 14.4087H21.5768V16.5725H20.0392V14.4087H17.8745V12.8702H20.0392V10.7055H21.5768V12.8702H23.7415V14.4087Z" fill="black" fill-opacity="0.8"/>
</svg>
