<svg width="28" height="28" viewBox="0 0 28 28" fill="none" xmlns="http://www.w3.org/2000/svg">
<path d="M28 0H0V28H28V0Z" fill="black" fill-opacity="0.8"/>
<path d="M6.58927 4.25293C7.8717 4.25397 8.92939 5.3132 8.92662 6.60202C8.92355 7.95154 7.80363 8.96868 6.57348 8.93937C5.32576 8.96462 4.22925 7.92248 4.22949 6.59311C4.22949 5.3038 5.29129 4.25195 6.58927 4.25293Z" fill="white"/>
<path d="M7.95191 23.7454H5.20426C4.84767 23.7454 4.55859 23.4563 4.55859 23.0997V11.3781C4.55859 11.0215 4.84767 10.7324 5.20426 10.7324H7.95191C8.30851 10.7324 8.59758 11.0215 8.59758 11.3781V23.0998C8.59752 23.4563 8.30851 23.7454 7.95191 23.7454Z" fill="white"/>
<path d="M23.7694 14.8489C23.7694 12.3915 21.7773 10.3994 19.3199 10.3994H18.6152C17.2708 10.3994 16.083 11.0702 15.3686 12.0955C15.2907 12.2073 15.2186 12.3233 15.1523 12.4431C15.1294 12.4397 15.1158 12.4379 15.1155 12.4385V10.9997C15.1155 10.8517 14.9955 10.7317 14.8475 10.7317H11.4194C11.2714 10.7317 11.1514 10.8517 11.1514 10.9997V23.4767C11.1514 23.6247 11.2713 23.7447 11.4193 23.7448L14.922 23.7457C15.0701 23.7457 15.1902 23.6257 15.1902 23.4776V16.2693C15.1902 15.0233 16.184 13.9887 17.4299 13.9747C18.0659 13.9675 18.6425 14.2223 19.0581 14.6381C19.4682 15.048 19.7218 15.6147 19.7218 16.2404V23.4785C19.7218 23.6265 19.8418 23.7465 19.9897 23.7466L23.5011 23.7474C23.6492 23.7475 23.7693 23.6275 23.7693 23.4794V14.8489H23.7694Z" fill="white"/>
</svg>
