<svg width="28" height="28" viewBox="0 0 28 28" fill="none" xmlns="http://www.w3.org/2000/svg">
<rect width="28" height="28" fill="black" fill-opacity="0.8"/>
<path d="M3.68457 7.86035V20.0687L9.63813 13.9399L3.68457 7.86035Z" fill="white"/>
<path d="M24.2892 7.86035V20.0687L18.3652 13.9645L24.2892 7.86035Z" fill="white"/>
<path d="M4.13574 7.30664H23.8005L16.072 15.3541C15.5219 15.9268 14.7622 16.2505 13.9682 16.2505C13.1742 16.2505 12.4144 15.9268 11.8644 15.3541L4.13574 7.30664Z" fill="white"/>
<path d="M16.5178 15.7819C15.8547 16.4724 14.9254 16.8684 13.9682 16.8684C13.0109 16.8684 12.0816 16.4725 11.4186 15.782L10.1077 14.417L4.13574 20.6351H23.8005L17.8287 14.417L16.5178 15.7819Z" fill="white"/>
</svg>
