<svg width="28" height="28" viewBox="0 0 28 28" fill="none" xmlns="http://www.w3.org/2000/svg">
<path d="M28 0H0V28H28V0Z" fill="black" fill-opacity="0.8"/>
<path d="M3.70917 20.7554C5.57264 21.9372 7.78312 22.6212 10.1527 22.6212C16.8096 22.6212 22.2059 17.2242 22.2059 10.5679C22.2059 10.4017 22.2024 10.2367 22.196 10.0723C22.4368 9.88279 23.926 8.6892 24.291 7.92188C24.291 7.92188 23.0817 8.42446 21.8981 8.54285C21.8958 8.54285 21.8929 8.54341 21.8906 8.54341C21.8906 8.54341 21.8929 8.54224 21.8969 8.53935C22.006 8.46648 23.5307 7.42858 23.7371 6.19192C23.7371 6.19192 22.8818 6.64848 21.6841 7.0479C21.4858 7.11376 21.2783 7.17852 21.0643 7.23855C20.2923 6.41464 19.195 5.90039 17.977 5.90039C15.6406 5.90039 13.7474 7.79304 13.7474 10.1276C13.7474 10.4571 13.7853 10.7777 13.857 11.0856C13.5305 11.0722 8.55862 10.7935 5.17623 6.69739C5.17623 6.69739 3.15474 9.45708 6.38088 12.2949C6.38088 12.2949 5.40018 12.2558 4.55409 11.7503C4.55409 11.7503 4.24333 15.0936 7.89685 15.9484C7.89685 15.9484 7.17794 16.2207 6.03105 16.0265C6.03105 16.0265 6.67241 18.7279 9.9184 18.9804C9.9184 18.9804 7.35163 21.2991 3.70801 20.755L3.70917 20.7554Z" fill="white"/>
</svg>
