<svg id="Layer_1" data-name="Layer 1" xmlns="http://www.w3.org/2000/svg" viewBox="0 0 455.73 455.73"><defs><style>.cls-1{fill:#fff;}.cls-2{fill:#ec2027;}</style></defs><title>2</title><rect class="cls-1" width="455.73" height="455.73"/><path class="cls-2" d="M305.22,484.81a14.37,14.37,0,0,0-1.14-5.06,5.45,5.45,0,0,0-4.9-3.35,8.53,8.53,0,0,0-6.69,2.51,4.44,4.44,0,0,0-1.12,1.67l0,54v1.33s.46.62.53.7a10.71,10.71,0,0,0,5.71,3.51c3.84.79,6.55-.81,7.3-4.37a13.1,13.1,0,0,0,.3-2.72C305.27,516.93,305.3,500.87,305.22,484.81Zm0,0a14.37,14.37,0,0,0-1.14-5.06,5.45,5.45,0,0,0-4.9-3.35,8.53,8.53,0,0,0-6.69,2.51,4.44,4.44,0,0,0-1.12,1.67l0,54v1.33s.46.62.53.7a10.71,10.71,0,0,0,5.71,3.51c3.84.79,6.55-.81,7.3-4.37a13.1,13.1,0,0,0,.3-2.72C305.27,516.93,305.3,500.87,305.22,484.81Zm60.43-81.39q-95.8-2.06-191.65,0a40.76,40.76,0,0,0-39.88,40.76v99.76A40.77,40.77,0,0,0,174,584.71q95.82,2.06,191.65,0a40.77,40.77,0,0,0,39.89-40.77V444.18A40.77,40.77,0,0,0,365.65,403.42ZM192.76,553H174.34V448.9H155.27V431.48h56.6v17.38H192.76Zm65.92-43.22V553H242.37v-9.88c-.59.63-.92,1-1.23,1.32-3.51,4-7.49,7.26-12.57,9a15.26,15.26,0,0,1-7.64.69,9.4,9.4,0,0,1-7.39-5.88,22.83,22.83,0,0,1-1.69-9.41c0-11.9,0-74.88,0-75.49H228.1c0,.55.09,45.76.1,67.81a18,18,0,0,0,.25,3.6c.6,3,2.87,4.23,5.72,3.19a17.78,17.78,0,0,0,7.88-6.17,2.85,2.85,0,0,0,.31-1.65V463.3l16.32,0Zm62.05,34.59c-2.18,6.56-7,9.9-13.88,9.83a18.43,18.43,0,0,1-13.91-6.35l-1.58-1.68V553H275V431.47h16.34v40a16.42,16.42,0,0,1,1.76-2.79,18.76,18.76,0,0,1,9.41-6c6.27-1.57,13.5.37,16.94,7.7a31.58,31.58,0,0,1,2.6,13.65q0,25.49,0,51A29.82,29.82,0,0,1,320.73,544.4ZM381.08,541c-2.83,8.29-8.68,12.89-17.26,14.15-5.32.78-10.59.67-15.58-1.59-6.83-3.08-10.7-8.65-12.36-15.74a47.47,47.47,0,0,1-1.19-10.15c-.13-13.31-.07-26.63,0-39.94,0-7,1.67-13.38,6.44-18.71,5.44-6.09,12.4-8.36,20.35-7.85a28.49,28.49,0,0,1,7.1,1.29c7.73,2.54,11.86,8.33,13.48,16a48.23,48.23,0,0,1,.9,9.06c.13,7.1-.05,22.75-.05,22.75H351.58v22.43a7.29,7.29,0,1,0,14.57,0V521.16H383S383.21,534.77,381.08,541Zm-14.93-57.22a7.29,7.29,0,1,0-14.57,0v12.59h14.57Zm-62.07-4a5.45,5.45,0,0,0-4.9-3.35,8.53,8.53,0,0,0-6.69,2.51,4.44,4.44,0,0,0-1.12,1.67l0,54v1.33s.46.62.53.7a10.71,10.71,0,0,0,5.71,3.51c3.84.79,6.55-.81,7.3-4.37a13.1,13.1,0,0,0,.3-2.72c0-16.07.05-32.13,0-48.19A14.37,14.37,0,0,0,304.08,479.75Z" transform="translate(-41.96 -193.08)"/><path d="M345.85,288.07v90.24H329.12l0-9.69c-1.85,1.82-3.43,3.52-5.16,5.05a22.54,22.54,0,0,1-10.63,5.52c-6.25,1.23-11.58-.75-13.57-7.23a23.68,23.68,0,0,1-1.09-6.73V288.07h16.6v68.82a15.64,15.64,0,0,0,.23,2.73c.51,2.83,2.6,4.17,5.33,3.22a17.83,17.83,0,0,0,8-6.17,3,3,0,0,0,.25-1.68V288.07Z" transform="translate(-41.96 -193.08)"/><path d="M207.54,303.75c-3.63-15.3-11.24-47.6-11.24-47.6h-19s14.62,48.49,21.16,70.11a8.43,8.43,0,0,1,.34,2.45v49.58h17.54V328.71a8.43,8.43,0,0,1,.34-2.45c6.54-21.62,21.16-70.11,21.16-70.11h-19s-7.61,32.3-11.24,47.6Z" transform="translate(-41.96 -193.08)"/><path d="M260.71,285.81h0a23.94,23.94,0,0,0-23.94,23.94v46.86a23.94,23.94,0,0,0,23.94,23.95h0a23.94,23.94,0,0,0,23.94-23.95V309.75A23.94,23.94,0,0,0,260.71,285.81Zm6.91,71.75a6.91,6.91,0,0,1-13.82,0V308.81a6.91,6.91,0,0,1,13.82,0Z" transform="translate(-41.96 -193.08)"/></svg>